<?xml version="1.0" standalone="no"?>
<!DOCTYPE svg PUBLIC "-//W3C//DTD SVG 20010904//EN"
 "http://www.w3.org/TR/2001/REC-SVG-20010904/DTD/svg10.dtd">
<svg version="1.0" xmlns="http://www.w3.org/2000/svg"
 width="700.000000pt" height="700.000000pt" viewBox="0 0 700.000000 700.000000"
 preserveAspectRatio="xMidYMid meet">
<metadata>
Created by potrace 1.14, written by Peter Selinger 2001-2017
</metadata>
<g transform="translate(0.000000,700.000000) scale(0.100000,-0.100000)"
fill="#000000" stroke="none">
<path d="M2795 4940 c-16 -18 -17 -27 -7 -98 6 -42 14 -88 17 -102 3 -14 8
-41 11 -60 3 -19 14 -84 25 -144 10 -60 19 -113 19 -117 0 -4 -62 -9 -137 -11
-122 -3 -144 -7 -186 -28 -136 -69 -213 -236 -246 -540 -8 -72 -6 -528 2 -580
3 -14 8 -56 11 -95 10 -94 21 -105 113 -106 l71 -1 5 -41 c3 -23 14 -47 23
-54 13 -10 76 -13 246 -13 l228 0 0 -384 0 -385 25 -19 c27 -22 56 -19 77 6
10 12 13 102 14 396 l0 381 35 3 34 3 0 -437 c0 -392 2 -440 16 -458 14 -17
22 -19 45 -11 27 10 29 14 32 73 l3 63 25 -20 c26 -21 46 -19 77 7 16 14 17
46 17 399 l0 383 33 0 32 0 0 -432 c0 -276 4 -439 10 -452 14 -29 66 -29 80 0
6 13 10 175 10 452 l-1 432 88 0 c54 0 100 5 120 14 18 8 91 36 161 62 129 47
162 66 154 88 -4 9 80 11 319 11 l324 0 0 401 0 400 -51 0 c-28 -1 -54 1 -58
4 -4 3 -8 26 -8 53 -2 122 6 117 -207 117 l-172 0 -17 35 c-25 53 -83 112
-135 136 -26 12 -63 39 -82 60 -19 20 -53 48 -75 61 l-40 23 -375 0 c-372 0
-375 0 -378 21 -2 12 3 21 10 21 7 0 42 6 78 12 36 7 79 14 95 17 17 3 63 11
104 19 40 8 74 15 75 15 1 0 -6 44 -16 98 -31 160 -23 145 -73 138 -47 -8 -45
-10 -61 79 -10 59 -26 95 -42 97 -9 0 -24 2 -32 2 -8 1 -31 -1 -50 -5 -19 -4
-55 -10 -80 -14 -66 -9 -92 -14 -164 -29 l-64 -13 -6 27 c-11 57 -66 79 -101
40z m429 -152 c10 -37 7 -65 -6 -65 -7 -1 -31 -4 -53 -8 -103 -17 -95 -18 -96
15 -1 16 -2 35 -3 42 -1 7 23 17 59 24 87 17 92 16 99 -8z m-251 -71 c3 -23 9
-50 12 -59 4 -10 -1 -17 -14 -21 -16 -4 -21 2 -26 32 -13 66 -14 86 -2 93 18
11 24 2 30 -45z m43 -247 c11 -54 10 -60 -17 -60 -19 0 -24 13 -33 78 -4 28
-1 32 18 32 18 0 24 -8 32 -50z m-186 -181 l55 -2 -66 -7 c-36 -3 -82 -14
-101 -23 -103 -49 -188 -197 -222 -387 -3 -19 -8 -46 -11 -59 -17 -87 -24
-478 -11 -596 4 -39 3 -41 -25 -40 -19 0 -29 5 -30 15 0 8 -2 23 -4 32 -2 10
-6 77 -10 150 -22 398 10 670 97 815 35 58 70 88 117 100 28 7 56 8 211 2z
m450 -1 c0 -7 -116 -5 -124 3 -3 3 24 5 59 5 36 -1 65 -4 65 -8z m308 7 c-8
-8 -298 -11 -298 -2 0 4 68 7 152 7 83 0 149 -2 146 -5z m240 -2 c-10 -2 -28
-2 -40 0 -13 2 -5 4 17 4 22 1 32 -1 23 -4z m-785 -10 c-7 -2 -21 -2 -30 0
-10 3 -4 5 12 5 17 0 24 -2 18 -5z m1407 -302 c3 -1 -13 -12 -35 -26 -40 -25
-135 -36 -135 -16 0 5 -3 16 -6 24 -4 11 2 16 18 19 18 2 137 2 158 -1z"/>
</g>
</svg>
