<svg xmlns="http://www.w3.org/2000/svg" viewBox="0 0 215 215"><path d="M0 103.2c0-48.65 0-73 15.11-88.09S54.55 0 103.2 0h8.6c48.65 0 73 0 88.09 15.11S215 54.55 215 103.2v8.6c0 48.65 0 73-15.11 88.09S160.45 215 111.8 215h-8.6c-48.65 0-73 0-88.09-15.11S0 160.45 0 111.8z" fill="#fff"/><path data-name="Mail.ru" d="M171.33 107.6c0 21.73-10.17 31.9-23 31.9a20.71 20.71 0 01-17.57-9.71 31.72 31.72 0 119.09-22.19v10.32c0 5.24 3.7 8.94 8.48 8.94 5.7 0 10.33-4.77 10.33-19.26a50.82 50.82 0 10-23.43 42.54l8.32 9.55A62.64 62.64 0 01108 170.63a63.19 63.19 0 1163.34-63zm-63.19 19.26a19.27 19.27 0 10-19.26-19.26 19.27 19.27 0 0019.26 19.26z"/></svg>