<svg xmlns="http://www.w3.org/2000/svg" viewBox="0 0 215 215"><path d="M0 103.2c0-48.65 0-73 15.11-88.09S54.55 0 103.2 0h8.6c48.65 0 73 0 88.09 15.11S215 54.55 215 103.2v8.6c0 48.65 0 73-15.11 88.09S160.45 215 111.8 215h-8.6c-48.65 0-73 0-88.09-15.11S0 160.45 0 111.8z" fill="#1877f2"/><path data-name="Facebook" d="M116.55 117.27H136L139.66 93h-23.11V77.3c0-6.64 3.23-13.1 13.58-13.1h10.51V43.56A127.3 127.3 0 00122 41.92c-19 0-31.48 11.61-31.48 32.63V93H69.35v24.24h21.17v58.6h26z" fill="#fff"/></svg>