<svg xmlns="http://www.w3.org/2000/svg" viewBox="0 0 215 215"><circle cx="107.5" cy="107.5" r="107.5" fill="#fff"/><path data-name="Instagram" d="M107.5 53c14.8 0 16.66.06 22.47.33a39.85 39.85 0 0113.23 2.53 27.92 27.92 0 0115.94 15.94 39.85 39.85 0 012.53 13.2c.27 5.81.33 7.67.33 22.47s-.06 16.66-.33 22.47a39.85 39.85 0 01-2.53 13.23 27.92 27.92 0 01-15.94 15.94 39.85 39.85 0 01-13.2 2.56c-5.81.27-7.67.33-22.47.33s-16.66-.06-22.47-.33a39.85 39.85 0 01-13.23-2.53 27.92 27.92 0 01-15.94-15.94 39.85 39.85 0 01-2.56-13.2c-.27-5.81-.33-7.67-.33-22.47s.06-16.66.33-22.47a39.85 39.85 0 012.53-13.23A27.92 27.92 0 0171.8 55.86 39.85 39.85 0 0185 53.33c5.84-.27 7.7-.33 22.5-.33zm22 10.14c-5.74-.26-7.47-.32-22-.32s-16.28.06-22 .32A30.26 30.26 0 0075.36 65 18.07 18.07 0 0065 75.36a30.26 30.26 0 00-1.87 10.12c-.26 5.74-.32 7.47-.32 22s.06 16.28.32 22A30.26 30.26 0 0065 139.64 18.07 18.07 0 0075.36 150a30.26 30.26 0 0010.12 1.87c5.74.26 7.47.32 22 .32s16.28-.06 22-.32a30.26 30.26 0 0010.16-1.87A18.07 18.07 0 00150 139.64a30.26 30.26 0 001.87-10.12c.26-5.74.32-7.47.32-22s-.06-16.28-.32-22A30.26 30.26 0 00150 75.36 18.07 18.07 0 00139.64 65a30.26 30.26 0 00-10.12-1.86zm-22 62.53a18.17 18.17 0 10-18.17-18.17 18.18 18.18 0 0018.17 18.17zm0-46.16a28 28 0 11-28 28 28 28 0 0128-28zm35.63-1.1a6.54 6.54 0 11-6.54-6.54 6.54 6.54 0 016.54 6.54z" fill-rule="evenodd"/></svg>