<svg width="14" height="14" fill="none" xmlns="http://www.w3.org/2000/svg"><g clip-path="url(#clip0_312_1776)"><rect width="14" height="14" rx="7" fill="#000"/><path d="M6.144 8.688v-.084c.006-.545.06-.978.163-1.3.105-.323.255-.583.448-.782.193-.2.426-.381.699-.545a2.87 2.87 0 00.474-.374c.14-.138.252-.296.334-.474.082-.18.123-.377.123-.594 0-.26-.061-.486-.184-.676a1.23 1.23 0 00-.492-.44 1.44 1.44 0 00-.677-.158c-.226 0-.44.047-.646.14-.205.094-.375.24-.51.44-.134.196-.212.45-.233.76H4.308c.02-.527.153-.972.4-1.335a2.33 2.33 0 01.975-.831 3.187 3.187 0 011.349-.281c.539 0 1.01.1 1.415.303.404.2.718.479.94.84.226.357.339.774.339 1.252 0 .328-.052.624-.154.887-.103.26-.25.494-.44.699a2.999 2.999 0 01-.676.545 2.966 2.966 0 00-.607.483 1.538 1.538 0 00-.334.593c-.07.229-.108.511-.114.848v.084H6.144zm.664 2.671a.853.853 0 01-.62-.254.85.85 0 01-.259-.624.83.83 0 01.26-.616.846.846 0 01.619-.259.84.84 0 01.615.26c.176.17.264.374.264.615a.837.837 0 01-.123.443.91.91 0 01-.317.317.838.838 0 01-.44.118z" fill="#fff"/></g><defs><clipPath id="clip0_312_1776"><rect width="14" height="14" rx="7" fill="#fff"/></clipPath></defs></svg>