<svg xmlns="http://www.w3.org/2000/svg" viewBox="0 0 215 215"><circle cx="107.5" cy="107.5" r="107.5" fill="#fff"/><path data-name="Twitter" d="M89 154.6c41.26 0 63.82-34.18 63.82-63.82 0-1 0-1.93-.07-2.89a45.74 45.74 0 0011.19-11.61 45 45 0 01-12.88 3.53 22.54 22.54 0 009.86-12.41 45 45 0 01-14.24 5.44 22.45 22.45 0 00-38.22 20.46 63.65 63.65 0 01-46.22-23.43 22.44 22.44 0 006.94 29.94A22.3 22.3 0 0159 97v.28a22.44 22.44 0 0018 22 22.33 22.33 0 01-10.12.38 22.44 22.44 0 0021 15.58 44.86 44.86 0 01-33.19 9.29A63.37 63.37 0 0089 154.58"/></svg>