<svg xmlns="http://www.w3.org/2000/svg" viewBox="0 0 215 215"><path d="M0 103.2c0-48.65 0-73 15.11-88.09S54.55 0 103.2 0h8.6c48.65 0 73 0 88.09 15.11S215 54.55 215 103.2v8.6c0 48.65 0 73-15.11 88.09S160.45 215 111.8 215h-8.6c-48.65 0-73 0-88.09-15.11S0 160.45 0 111.8z" fill="#1da1f2"/><path data-name="Twitter" d="M87 159c45.37 0 70.19-37.59 70.19-70.2 0-1.06 0-2.13-.07-3.18a50.32 50.32 0 0012.31-12.77 49.45 49.45 0 01-14.17 3.88 24.78 24.78 0 0010.84-13.65 49.3 49.3 0 01-15.66 6 24.69 24.69 0 00-42 22.5A70 70 0 0157.59 65.8a24.7 24.7 0 007.64 32.94 24.56 24.56 0 01-11.2-3.09V96a24.68 24.68 0 0019.79 24.19 24.67 24.67 0 01-11.14.42 24.71 24.71 0 0023 17.13A49.39 49.39 0 0155 148.31a50.12 50.12 0 01-5.87-.35A69.82 69.82 0 0087 159" fill="#fff"/></svg>