<svg xmlns="http://www.w3.org/2000/svg" viewBox="0 0 215 215"><path d="M0 103.2c0-48.65 0-73 15.11-88.09S54.55 0 103.2 0h8.6c48.65 0 73 0 88.09 15.11S215 54.55 215 103.2v8.6c0 48.65 0 73-15.11 88.09S160.45 215 111.8 215h-8.6c-48.65 0-73 0-88.09-15.11S0 160.45 0 111.8z" fill="red"/><path data-name="YouTube" d="M165.87 77.5A15.34 15.34 0 00155 66.66c-9.56-2.56-47.89-2.56-47.89-2.56s-38.33 0-47.89 2.56A15.36 15.36 0 0048.38 77.5c-2.56 9.56-2.56 29.5-2.56 29.5s0 19.94 2.56 29.5a15.36 15.36 0 0010.84 10.84c9.56 2.56 47.89 2.56 47.89 2.56s38.33 0 47.89-2.56a15.34 15.34 0 0010.83-10.84c2.56-9.56 2.56-29.5 2.56-29.5s.04-19.94-2.52-29.5zm-71 47.89V88.61L126.73 107z" fill="#fff"/></svg>