<svg width="14" height="14" viewBox="0 0 14 14" fill="none" xmlns="http://www.w3.org/2000/svg">
<g clip-path="url(#clip0_312_1776)">
<rect width="14" height="14" rx="7" fill="black"/>
<path d="M6.14434 8.68781V8.60432C6.1502 8.05946 6.2044 7.62591 6.30692 7.30367C6.41238 6.98144 6.56178 6.72073 6.75512 6.52153C6.94846 6.32233 7.18135 6.14071 7.45378 5.97666C7.62954 5.86534 7.78773 5.74085 7.92834 5.60316C8.06895 5.46548 8.18027 5.3073 8.26229 5.1286C8.34431 4.94991 8.38533 4.75218 8.38533 4.5354C8.38533 4.27469 8.32381 4.04912 8.20077 3.85871C8.07774 3.6683 7.91369 3.52183 7.70864 3.4193C7.50651 3.31385 7.28095 3.26112 7.03195 3.26112C6.80639 3.26112 6.59108 3.30799 6.38602 3.40173C6.18096 3.49547 6.01106 3.64194 5.8763 3.84114C5.74155 4.03741 5.66392 4.2908 5.64342 4.60131H4.30762C4.32812 4.07402 4.46141 3.62876 4.70748 3.26551C4.95355 2.89934 5.27871 2.62251 5.68297 2.43503C6.09015 2.24755 6.53981 2.15381 7.03195 2.15381C7.57096 2.15381 8.04259 2.25487 8.44684 2.457C8.8511 2.6562 9.16454 2.93596 9.38718 3.29627C9.61274 3.65366 9.72552 4.07109 9.72552 4.54858C9.72552 4.87668 9.67426 5.17254 9.57173 5.43619C9.4692 5.6969 9.32273 5.92979 9.13232 6.13485C8.94484 6.33991 8.71928 6.52153 8.45563 6.67971C8.20663 6.83497 8.00451 6.99609 7.84925 7.16306C7.69692 7.33004 7.5856 7.52777 7.5153 7.75626C7.44499 7.98476 7.40691 8.26744 7.40105 8.60432V8.68781H6.14434ZM6.80785 11.3594C6.56764 11.3594 6.36112 11.2745 6.18828 11.1046C6.01545 10.9317 5.92903 10.7237 5.92903 10.4806C5.92903 10.2404 6.01545 10.0353 6.18828 9.86542C6.36112 9.69259 6.56764 9.60617 6.80785 9.60617C7.04513 9.60617 7.25019 9.69259 7.42302 9.86542C7.59879 10.0353 7.68667 10.2404 7.68667 10.4806C7.68667 10.6417 7.64566 10.7896 7.56363 10.9244C7.48454 11.0562 7.37908 11.1617 7.24726 11.2408C7.11544 11.3199 6.96897 11.3594 6.80785 11.3594Z" fill="white"/>
</g>
<defs>
<clipPath id="clip0_312_1776">
<rect width="14" height="14" rx="7" fill="white"/>
</clipPath>
</defs>
</svg>
